<svg id="레이어_1" data-name="레이어 1" xmlns="http://www.w3.org/2000/svg" viewBox="0 0 128.02 34.77"><defs><style>.cls-1,.cls-2{fill:#d3161a;}.cls-1,.cls-6{fill-rule:evenodd;}.cls-3{fill:#fff;}.cls-4{fill:#3f210e;}.cls-5{fill:#585757;}.cls-6,.cls-7{fill:#3e3e3f;}</style></defs><title>log</title><path class="cls-1" d="M123.1,33.81c0-.14.2.4,0,.36A.76.76,0,0,0,123.1,33.81Z" transform="translate(-5.99 -1.61)"/><path class="cls-2" d="M123.11,34.24l-.06-.08a2.09,2.09,0,0,0,0-.25h0a.19.19,0,0,0,0-.07h0l.07,0h0l-.07,0v0a.09.09,0,0,1,0-.05h0a.08.08,0,0,1,.06,0h0c.08,0,.08,0,.1,0h0l0,.06h0a1.55,1.55,0,0,1,0,.15h0a.38.38,0,0,1,0,.15h0a.14.14,0,0,1-.11.13h0Z" transform="translate(-5.99 -1.61)"/><path class="cls-1" d="M127.33,35.66c0-.08.17-.11.2-.08S127.39,35.74,127.33,35.66Z" transform="translate(-5.99 -1.61)"/><path class="cls-2" d="M127.27,35.72l.06-.06.06.05-.06-.05-.06.06v-.1a.31.31,0,0,1,.19-.12h0a.16.16,0,0,1,.13,0h0l0,0h0v0h0a0,0,0,0,1,0,0h0s0,0,0,0h0l0,0h0a.31.31,0,0,1-.14.07h0a.13.13,0,0,1-.13,0Z" transform="translate(-5.99 -1.61)"/><path class="cls-1" d="M126.54,36c.1.19-.33,0-.23.22,0,0,0,0-.09,0C126.18,36.05,126.48,36.12,126.54,36Z" transform="translate(-5.99 -1.61)"/><path class="cls-2" d="M126.23,36.3h0v-.08l-.08,0v0h0a.15.15,0,0,1,.07-.16h0a.22.22,0,0,1,.13,0h0l.08,0h.14a.14.14,0,0,1,0,.06h0a.14.14,0,0,1,0,.12h0l-.09,0h-.13l-.06.1a.15.15,0,0,1-.08,0Zm0,0h0Zm-.06-.05Z" transform="translate(-5.99 -1.61)"/><path class="cls-1" d="M124.5,27.26c.08,0,0-.18.15-.16,0-.14-.11-.14-.1-.3a.25.25,0,0,1,.17-.07c0-.07,0-.13,0-.14s-.11,0-.11-.12c.15,0,.21-.1.18-.25s0,.05,0,.08.17-.05.19,0,.08-.09.11-.11.06,0,.1,0,0-.05.07-.06.26,0,.25-.13c.1,0,.15.1.18.23s-.17,0-.17.08.23,0,.3-.06.24-.08.2.1c.14,0,.37-.18.39-.06s.2-.14.3-.06a.24.24,0,0,1-.07-.16c.06,0,.13,0,.12-.07a.12.12,0,0,1,.11.11c.16-.1,0-.16.13-.29.22,0,.14-.15.28-.18,0,.14.09,0,.15.06s0,0,0,.05.1.09.08.17.13,0,.11-.11.2.1.13.2c.11,0,.07-.09.17,0s0,.22.16.15c0,.1-.06.11,0,.23a.26.26,0,0,0,.07-.15s.09,0,.14,0l.1.07a1.89,1.89,0,0,1,.25-.09c.07,0,.15,0,.23,0a.38.38,0,0,1-.25.13c0,.14.11.12,0,.22.17-.05-.06-.13,0-.19s.06.12.12.16,0,0,0,0,0,.05,0,0-.07,0-.07.1.22-.1.39-.07,0,.09,0,.18.07,0,.21,0c-.05.08,0,.23,0,.36s.09,0,.1.07a.26.26,0,0,0,.07-.15s0,0,0,.05a.2.2,0,0,1,.06.12s.07,0,.1,0,0,.07,0,.08.17,0,.21.15a.2.2,0,0,1,.12-.07c0,.07,0,.15,0,.22.1-.12.1-.07.24-.13,0,.16.06.24.18.23s-.07.05-.12.07.05,0,.06.08.05,0,.13,0c-.09.22.16.14.26.23a.18.18,0,0,0,0,.13c0,.06.09.13.19.1s0,.08.11.08a1.31,1.31,0,0,1-.09.28c.06.05.26.1,0,.13,0,0,.16,0,.18,0s.06,0,.08-.06.13.1.16.2a.14.14,0,0,0-.13,0q0,.07,0,.09a.25.25,0,0,0,.14.06c0,.08-.11.1-.15.17s0,.07,0,.08,0,.12,0,.23h-.08c0,.12,0,.32-.22.31s0-.2-.09-.25,0,.09,0,.13-.1,0-.12.07,0,.07,0,.09a.25.25,0,0,0-.1.19.3.3,0,0,1-.1-.29c-.16,0,0,.22-.18.25,0,.05.05,0,0,0s0,.2.16.16a1.55,1.55,0,0,1,0,.21s0,0-.06-.08a1,1,0,0,0-.12.29c-.15,0,.17-.33-.06-.34s.08.16,0,.05c-.13.12.1.36-.1.42,0,.11.08.11,0,.22s0,.12,0,.13,0,.15,0,.24a.59.59,0,0,0,0,.23c0,.05-.08,0-.08.06s.09.08.14.06-.06,0-.08.06,0,.16-.08.28a.32.32,0,0,0,0,.14s0,0,0,0,.11.27-.08.29c.08.09.11.06.08.21s-.11,0-.13,0,.05,0,.05,0-.06.15,0,.27c-.16,0,0,.14-.05.19s-.08,0-.09,0,0,.1,0,.09.05.08,0,.22-.09.14-.14.2.09.08.08.21l-.13,0s0,.1-.12.1-.1.26-.2.35-.07,0-.09,0a.6.6,0,0,0-.13.25c-.1-.06-.06,0-.18,0,.1.22,0,.27,0,.45-.08,0-.2.07-.19.17l-.07.1s-.19.06-.2.12,0,0,0,0-.15.23-.2.13-.15-.21-.14-.07c-.08,0-.05-.09,0-.09s-.1-.12,0-.22,0,.11-.16.08-.09-.22,0-.23-.09,0-.1-.07,0,.06,0,.09a.32.32,0,0,1-.1.2c-.15,0,.1-.13,0-.27.07,0,.07,0,.12-.06,0-.23,0-.06.09,0s0-.13.06-.14-.11,0-.18,0a.34.34,0,0,0-.06.15c-.2.06-.24,0-.27.23-.13,0,0-.18-.12-.16s0,.26-.16.11c-.15.06,0,.13,0,.24s0-.37-.23-.28c0-.2.33-.23.22-.53-.16-.06-.08.11-.1.16H127s0,.13,0,.23c-.14,0-.19.07-.15.2s0-.06,0-.09c.16,0,0,.12,0,.13s.06.16,0,.22l-.09,0s0,.13,0,.18-.12-.1-.07-.17c-.18,0,0,.22-.19.21s.06-.1,0-.22-.11.21,0,.22c-.08.17-.24,0-.28-.08s-.09.07-.17.07,0-.11-.07-.12-.09.08-.13,0,0-.08,0-.08-.18,0-.31,0-.08.15-.05.27.27.16.41.24a.12.12,0,0,0,.11-.1c.06,0,.1.07.12.15a.2.2,0,0,1-.12.07c0-.07-.05,0-.05,0s-.07-.07-.1-.07-.1,0-.13,0,0-.08-.06-.08-.07,0-.09,0,0-.18-.19-.1c0-.23-.21-.14-.2-.37-.13,0-.1.08-.21.08a.64.64,0,0,0,.25.18,0,0,0,0,1-.08,0c-.05-.06-.17,0-.21-.14s-.12,0-.12.07,0-.06-.06-.08a.9.9,0,0,0-.3-.17.12.12,0,0,0-.11-.12c0-.06,0-.08,0-.13s-.12-.1-.11-.12,0,0-.06-.12-.09-.13-.21-.15c.1-.14-.1-.12-.13-.24s0,.09,0,.09-.09-.06-.16-.15-.07-.13-.12-.2-.09,0-.11-.07,0-.09,0-.13,0-.11-.09-.25a.25.25,0,0,0,0-.09c0-.09-.06,0,0-.14s-.11,0-.11-.11l.08,0s0,0-.09,0,0-.08,0-.08.11-.1,0-.23,0,.17-.15.16a1.43,1.43,0,0,0,0-.22c.07,0,.07,0,.13,0a.76.76,0,0,0-.09-.3c.05,0,0-.07,0-.09s.08,0,.07-.06a.25.25,0,0,0,0-.09h-.09c0-.05.07-.05.13-.06a.36.36,0,0,1,0-.4s0-.07,0-.09.07,0,.08-.06-.07-.08-.07-.13a.82.82,0,0,0,.11-.15c0-.08,0-.17,0-.26s.09-.27.16-.38-.06,0-.13,0-.06.11-.07.14.1.21-.05.19c.05.21,0,.38-.15.43,0-.16,0-.35,0-.49s0,0,0-.05.13-.12.09-.24-.11.12-.14.2,0,.28-.13.29,0-.15,0-.22a1.55,1.55,0,0,1,0-.32s0,0,0-.05l0-.14s.07,0,.08-.06-.06-.15.07-.14l-.09.28c.05.05.12-.07.16-.12l.14-.2s0-.07,0-.09.06,0,.08-.06,0-.11.07-.1-.08.25-.11.38a1.17,1.17,0,0,0,.25-.58c-.15,0,0,.14-.16.11,0-.13,0-.26.17-.29,0-.17.06-.22.13-.3-.13-.21.14-.38.11-.64-.11.05-.06.21-.18.25s.06-.07.07-.1,0-.08,0-.09c0-.16-.13-.33,0-.28s-.06-.08-.06-.08l0-.09s.08,0,.09,0,0-.12,0-.18a.43.43,0,0,1,.12-.11c0-.08-.07-.08-.08-.17.14,0,.06-.11.06-.18.17,0,.12-.14.18-.22-.15,0,0,.15-.15.12,0-.13.18-.15.12-.33-.07.05-.06.16-.1.24S124,28,124,28s-.07-.06-.06-.08.09,0,.09,0-.07-.18.07-.1c0-.14-.16,0-.12-.2-.08,0-.08,0-.08.1a.14.14,0,0,0-.13,0c0-.14.23-.13,0-.18,0-.11.26.12.2-.13,0,0,0,.07.07.12s.3-.09.37-.2,0,0-.06,0,0-.07,0-.05v0S124.47,27.17,124.5,27.26Zm3.33-1.17c0,.13,0,.16.12.2C127.91,26.22,127.9,26.11,127.83,26.09Zm-3,9.7s0-.06,0-.09l-.09,0a.29.29,0,0,0,0,.09Zm-.48-8.29c.09,0,.17-.2.1-.19S124.36,27.41,124.36,27.5Zm5.16-.19a.26.26,0,0,1-.18,0C129.29,27.43,129.55,27.38,129.52,27.31Zm1.54,2.37.08,0c0-.05.05-.07,0-.13l-.13,0Zm-7.76,1.46c.09-.12,0-.09-.09,0S123.26,31.2,123.3,31.14Zm7.11-.81c.06-.08,0-.2-.12-.16S130.33,30.33,130.41,30.33Zm-.24.67c.1-.11-.08-.24,0-.31s0-.07-.1-.07C130.14,30.78,130,31,130.17,31Zm-1,.49h.09s0-.06,0-.09l-.09,0Zm.81.26a.12.12,0,0,0,.11-.1C130,31.66,129.91,31.67,130,31.75Zm-1.17,1c.14,0,.1-.14.1-.2h.05a.53.53,0,0,0-.14-.24A.74.74,0,0,0,128.78,32.77Zm1.06-.33c.07,0,.17,0,.17-.07s0-.19-.16-.15C129.89,32.32,129.79,32.33,129.84,32.44Zm-6.24,1.38s.08,0,.1.07a.26.26,0,0,0,0-.23l-.17,0A.17.17,0,0,0,123.6,33.82Zm0,.31c-.07-.11.11-.25-.08-.21C123.56,34,123.52,34.15,123.61,34.13Zm.16.15c-.07-.1.11-.25-.08-.21C123.72,34.13,123.68,34.3,123.77,34.28Zm-.06.19c0-.08,0-.18-.12-.2S123.62,34.48,123.71,34.47Zm4.38-.33a.3.3,0,0,1,0,.14c.09,0,0-.07.07-.1s.19-.11,0-.14C128.16,34.09,128.16,34.14,128.09,34.14Zm-.22.31s-.09.22,0,.17.09-.06.12-.11,0-.26-.14-.24S127.81,34.42,127.87,34.45Zm-.38.11c0-.08,0-.18-.16-.15S127.38,34.59,127.49,34.56Zm0,.17c0,.17.1.15,0,0s0,0,0-.1S127.56,34.72,127.52,34.73Zm-.15.16h.09l0-.09-.09,0S127.36,34.87,127.37,34.89Zm.2.15c.13,0,.06-.16.25-.13,0-.13-.11-.07-.15-.11C127.74,35,127.51,34.89,127.57,35Zm-2.77.49.08,0c0-.07,0-.11-.06-.12S124.77,35.46,124.8,35.53Zm2.49-.31c0-.12-.1-.07-.15-.11S127.2,35.25,127.29,35.22Zm-.88.34c.18,0,.16-.09.31-.06,0-.07.09-.25-.09-.21C126.67,35.46,126.43,35.43,126.41,35.56Z" transform="translate(-5.99 -1.61)"/><path class="cls-2" d="M126,36.37h0l0,0h0v0a.19.19,0,0,1-.12-.07h0l-.07,0h-.07s0,0-.06-.06h0a.12.12,0,0,1-.08,0h0a.25.25,0,0,1-.07-.11h0l0,0h0l-.11-.08v0h0a.11.11,0,0,1-.09.07h0a.12.12,0,0,1-.13-.07h0L125,36h0a.28.28,0,0,1-.11-.07h0l0,.06h0a.08.08,0,0,1-.08,0h0l0-.05h0a.13.13,0,0,1,0,0h0a3.08,3.08,0,0,0-.28-.15h0l0-.05h0s0,0,0,0h0l-.06,0s0,0,0,0h0a.13.13,0,0,1,0-.09h0l-.06-.05h0a.12.12,0,0,1,0-.07h0s0,0,0,0h0a.21.21,0,0,1-.07-.11h0c0-.05,0-.06-.14-.08h0l0-.12s0,0,0,0h0l0,0h0l-.07-.05h0V35h0l-.1-.06h0l-.1-.12h0c0-.07-.08-.14-.13-.2h0s0,0-.08-.06h0a.14.14,0,0,1,0-.06h0a.28.28,0,0,1,0-.08h0a1.19,1.19,0,0,1-.09-.26h0v0h0V34h0l0,0h0s0,0,0,0h0a.07.07,0,0,1,0-.06h0a.18.18,0,0,1-.07-.11h0v0h0l0,0,0,0a0,0,0,0,0,0,0h0l0,0h-.06l-.07-.06a1.7,1.7,0,0,1,0-.22h0l.12-.08h0A1.46,1.46,0,0,0,123,33h0l0-.05h0a.15.15,0,0,1,0-.11h0a.05.05,0,0,1,0,0h0v0h0a.2.2,0,0,1,0-.08h0l0,0h0a.19.19,0,0,1,0-.08h0a.52.52,0,0,1,0-.3h0v0h0a.41.41,0,0,1,0-.08h0l0,0h0l0-.08h0l-.08,0h0L123,32a.48.48,0,0,0,0-.21h0l0,0h0l-.08,0,0-.07h0a.77.77,0,0,1,0-.2h0a1.84,1.84,0,0,1,0-.33h0a.1.1,0,0,1,0-.05h0v0h0s0-.05,0-.08h0a.08.08,0,0,1,0,0h0a.31.31,0,0,1,.06-.06h0a.21.21,0,0,1,0-.08h0a.12.12,0,0,1,.1-.08h0l.07.1v0h0a.61.61,0,0,0,.07-.1h0s0,0,0,0h0a.09.09,0,0,1,0-.08h0l.07-.05h0a.11.11,0,0,1,0-.09h0s0,0,0,0h0l0,0a.93.93,0,0,1,0-.22h0a.28.28,0,0,1,.12-.12h0a.29.29,0,0,1,.06-.19h0l.07-.07h0s0,0,0-.06h0a.39.39,0,0,1,0-.24h-.06a.07.07,0,0,1-.07-.06h0a.13.13,0,0,1,0-.1h0a.05.05,0,0,1,0,0h0l0,0h0a.14.14,0,0,1,0-.09h0a1.09,1.09,0,0,1,0-.17h0a.26.26,0,0,1,0-.09h0l0,0h0v0h0a.45.45,0,0,1,0-.08h0s0,0,0,0h0l0,0h.06a.31.31,0,0,1,0-.13h0a.3.3,0,0,1,.09-.1h0a.19.19,0,0,1,0-.1h0s0,0,0,0h0l.08-.07a.51.51,0,0,0,0-.09h0v0h0l.06-.06h0l0,0h0a.08.08,0,0,1-.08,0h0s0,0,0,0h0a.09.09,0,0,1,0-.07h0a.06.06,0,0,1,0-.07h0s0,0,.05,0h0v0h0s0,0,0-.05h0l0,0h0l0,0a.12.12,0,0,0-.08,0h0l-.09-.05v0h0a.14.14,0,0,1,0-.14h0l0,0a.11.11,0,0,1,.09-.09h0s.07,0,.1,0h0v0h0l.08-.1a.15.15,0,0,1,.09,0h0a.09.09,0,0,1,0,.06h0l.18-.08h0l0-.05h0a.11.11,0,0,1,.05-.1h0a.15.15,0,0,1,.07,0h0a0,0,0,0,1,.06,0h0l0,0h0s0,0,0-.06h0l0,0h0l0,0h0a.48.48,0,0,1,0-.12h0a.25.25,0,0,1,0-.08h0l0-.05a.25.25,0,0,1,.14-.08h0a0,0,0,0,1,0-.05h0a.19.19,0,0,1-.08-.11h0v0h0l.07-.07h0a.15.15,0,0,0,.09,0h0s0,0,0-.09h0v0h0l.06-.1a.13.13,0,0,1,.13.07H125l0,0h0v0h0a.22.22,0,0,1,.05-.06h0s.07,0,.08,0h0a.14.14,0,0,1,.07,0h0l0,0h.15l.1-.08a.32.32,0,0,1,.23.28h0l0,0h.05l0,0h.15l.06.05h0a.9.9,0,0,1,.23-.08h0a.14.14,0,0,1,.09,0h0a.1.1,0,0,1,.06.05h0l0,0h0l.08,0h0s0,0,0-.06h0v0h0l.07-.08h.07l.08-.06a.16.16,0,0,1,.1.05h0a.28.28,0,0,1,.06-.19h0l.07,0h.06s0,0,0-.05h0a.23.23,0,0,1,.16-.14h0l.07.06h0a.12.12,0,0,1,.12,0h0a.11.11,0,0,1,0,.06h0a.06.06,0,0,1,0,.06h0l0,0h0l.07-.08a.29.29,0,0,1,.21.15h0a.24.24,0,0,1,.12,0h0l0,.09s0,.06,0,.08h0l.07,0h0l.09,0a0,0,0,0,1,0,0h0v0h0a.19.19,0,0,1,.1,0h0a.12.12,0,0,1,.07,0h0l0,0h0l.16-.05h0c.1,0,.16,0,.19,0h0l.09.12-.06.07h0s0,0,0,0h0s0,.09,0,.11h0s0,0,0,0h0a.12.12,0,0,1,0,.07h0l.16-.05h.11l0,0a.15.15,0,0,1,.07.1h0v0h.09l.06.13s0,.05,0,.12h0c0,.05,0,.09,0,.14h0s0,0,0,0h0l.08-.06h.06a.15.15,0,0,1,0,.06h0s0,0,0,0h0a.25.25,0,0,1,0,.07h0l.07,0h0s0,.05,0,.07h0v0h0l.07,0h0a.24.24,0,0,1,.09.06h0l.08,0h0l.09.07a.22.22,0,0,0,0,.08h0l.13-.05h0l.11.07a.15.15,0,0,0,0,.07h0a.1.1,0,0,0,0,.08h0s0,0,.06,0h0l.08.07a.43.43,0,0,0,0,.05h0l.07.1s0,0,0,0h.06a.52.52,0,0,1,.2.08h0l0,.09a.19.19,0,0,0,0,.07h0s0,0,.05.05h.06l.08.07h0l.08.09a.77.77,0,0,1-.06.24h0l.07,0h0s0,0,0,.05h.05l0,0a.3.3,0,0,1,.23.24h0l-.09.09h0l.06.09a.24.24,0,0,1-.1.13h0l0,0h0v0h0a.15.15,0,0,1,0,.08h0l0,.07h0a.23.23,0,0,1,0,.14h0a.18.18,0,0,1-.06.05h0a.89.89,0,0,1,0,.14h0a.21.21,0,0,1-.18.17h-.11a.34.34,0,0,1-.08-.09h0v0h0s0,0,0,.08h0a.21.21,0,0,0-.09.15h0l-.12.05,0,0c0,.07,0,.15,0,.22h0l-.07.09h-.06l-.06.17h0l-.1.05h0a.16.16,0,0,1-.06.08h0a.19.19,0,0,1,0,.09h0a.25.25,0,0,1,0,.12h0v0h0v.07h0s0,0,0,.07h0s0,0,0,.05h0a.5.5,0,0,1,0,.16h0a.77.77,0,0,0,0,.19h0a.09.09,0,0,1,0,.07h0l.08,0v0h0s0,.1-.06.11h0c0,.05,0,.13-.07.26h0a.25.25,0,0,0,0,.11h0a.2.2,0,0,1,0,.08h0a.2.2,0,0,1,0,.09h0a.2.2,0,0,1,0,.13h0s0,0,0,0h0a.11.11,0,0,1,0,.06h0a.56.56,0,0,1,0,.13h0a.12.12,0,0,1-.09.1h0v0h0a.33.33,0,0,0,0,.1h0s0,0,0,.05h0l-.07.09,0,.08h0a.25.25,0,0,1,0,.08h0c0,.06-.06,0-.07.06h0v0h0s0,0,0,0h0a.14.14,0,0,1,0,.06h0a.56.56,0,0,1,0,.13h0l-.07.08h0s0,0,0,0h0a.37.37,0,0,1,0,.11h0l0,0h0a.21.21,0,0,1,.06.11h0v.07h0l-.07.07-.09,0h0l0,0h0a.15.15,0,0,1-.11.09h0a.32.32,0,0,0-.07.13h0a.62.62,0,0,1-.12.2h0l-.05,0h0a.56.56,0,0,0-.11.2h0l-.11,0h0l0,0h0v0h0a.62.62,0,0,1,0,.21h0a.22.22,0,0,0,0,.14h0l-.09.1h0a.11.11,0,0,0-.07,0h0s0,0,0,0h0a.2.2,0,0,1,0,.05h0l0,0h0s0,0,0,0h0l0,0h0a.13.13,0,0,1-.06,0h0l-.06,0h0l-.07,0h0a.08.08,0,0,0,0,0h0v0h-.12s-.05.08-.13.1h0a.11.11,0,0,1-.12-.07h0v-.07h0v0h0l-.08.07a.14.14,0,0,1-.11-.1h0a.17.17,0,0,1,0-.12h0s0,0,0,0h0l0,0H128l-.06-.09h0a.08.08,0,0,0,0,0h0a.38.38,0,0,1-.08.11h0l-.08,0a.12.12,0,0,1-.1-.1h0c0-.08,0-.1,0-.13h0l0-.05h0l0,0-.08,0h0s0,0-.05.12h0l-.09.06a.11.11,0,0,1-.09-.06h0a.17.17,0,0,1-.09.07h0v0h0a.16.16,0,0,1,0,.14h0l-.07,0a.12.12,0,0,1-.1-.08h0a.16.16,0,0,1,0-.09h0a.68.68,0,0,0,0-.12h0l0,0h0l0,0h0a.63.63,0,0,1,0,.13h0a.11.11,0,0,1,0,.08h0s0,0,0,0h0v0h0a.26.26,0,0,1,0,.12h0l-.1.05-.08,0h0a.15.15,0,0,1-.11.09h0a.13.13,0,0,1-.1.06h0a.24.24,0,0,1-.19-.06h0l-.06-.07h0a.22.22,0,0,1-.1.05h0a.09.09,0,0,1-.09,0h0s0,0,0-.05h0a.11.11,0,0,1-.12-.05h0l0,0h0v0h0l-.21,0h0s0,.07,0,.14h0a0,0,0,0,0,0,0h0a1.17,1.17,0,0,0,.34.19h0s0,0,0,0h0L126,36a.26.26,0,0,1,.17.21h0l0,.08a.27.27,0,0,1-.15.08Zm0,0h0Zm0,0h0Zm0,0h0Zm0,0,0,0h0l0,0Zm.06-.07Zm-.42,0Zm2.73-.54s0,0,.05-.05h0l.07,0h0s.06,0,.09-.06h0l.1,0h0l0,0h0l0,0h0a.21.21,0,0,1,.07-.15h0a.29.29,0,0,1,.12-.07h0a.49.49,0,0,1,0-.14h0a.59.59,0,0,0,0-.13h0l0-.08h0l.06-.11h0a.1.1,0,0,1,.07,0h0a.82.82,0,0,1,.12-.2h0a.07.07,0,0,1,.06,0h.05l.07-.13h0a.37.37,0,0,1,.13-.21h.05a.26.26,0,0,1,.06-.08h0l0,0h0a.27.27,0,0,1-.06-.11h0v0h0l0-.05s0,0,0-.09h0a.19.19,0,0,1,.1-.12h0v0h0l0-.09h0l.05-.05h0a.1.1,0,0,1,0,0h0a.08.08,0,0,1,0-.07h0a.06.06,0,0,1,0,0h0a.43.43,0,0,0,0,0h0a.14.14,0,0,1,0-.09h0a.12.12,0,0,1,0,0h0a.35.35,0,0,1,0-.15h0a.07.07,0,0,1,0-.06h0a.11.11,0,0,1,0-.07h0a.09.09,0,0,1,.06,0h0s.06,0,.07,0h0v0h0l-.07-.06h0l0-.13h0v0h0v0h0a.12.12,0,0,1,0,0h0a.15.15,0,0,1-.09,0h-.06l-.09,0s0,0,0-.07h0a.2.2,0,0,1,0-.12h0s0,0,0,0h0v0h0l0-.09h0a.14.14,0,0,1,.11,0h0a.25.25,0,0,1,0,.07h0a.26.26,0,0,1,0,.07h0l0,0a0,0,0,0,1,0,0h0c0-.06,0-.06,0-.06h0a.29.29,0,0,1,0-.15h0c0-.08,0-.16.07-.26h0a.16.16,0,0,1-.06-.09h0v0h0a.19.19,0,0,1-.16.14h0v-.08l.05,0-.05,0v.08l-.09,0a.09.09,0,0,0,0-.05h0a.13.13,0,0,1,.08-.14h0l.1,0h0l.1.09v0h0s0,0,0,0h0l0,0h0a.78.78,0,0,1,0-.23h0a.28.28,0,0,0,0-.1h0a.3.3,0,0,1,0-.14h0v0h0v-.06h0a.09.09,0,0,1,0-.05h0a.16.16,0,0,0,0-.05h0l0,0h0a.39.39,0,0,1,0-.09h0l.05-.09s0,0,0,0h0s0,0,0-.07h0s0,0,0-.06h0a.26.26,0,0,1,0-.19h0l-.1-.05h0a.31.31,0,0,1-.06-.13h0v-.06h0l.05-.07h0a.14.14,0,0,1,.13,0h0l0-.06h0v0h0a.29.29,0,0,1,0-.14h0a.16.16,0,0,1,.12-.09h0l.09.09a.17.17,0,0,0,0,.1h0l0-.05h0v0h0a.11.11,0,0,1,0-.07h0a.11.11,0,0,1,.08-.06h0v0h0a.16.16,0,0,1,0-.07h0a.09.09,0,0,1,.06-.06h0a.13.13,0,0,1,0-.06h0l.06-.09.13,0h0l.09.05a0,0,0,0,0,0,0h0s0,.07,0,.09h0l0,0h0l-.06.09h0a.77.77,0,0,1,0,.1h0s0,0,.06-.07h0a1.72,1.72,0,0,0,0-.18h0s0-.05,0-.05h.05a.15.15,0,0,1,0-.08h0a.1.1,0,0,1,0-.09h0s0,0,0,0h0s0,0,0-.06h0a.38.38,0,0,1,.09-.09h0l-.06,0h0V29h0l.05-.09h0a.09.09,0,0,1-.08,0h0a.33.33,0,0,1-.17,0h0s-.05,0-.06-.07h0s0,0,0-.05h0l0,0,0,0h0l0-.1a.56.56,0,0,0,0-.18h0a.1.1,0,0,1-.07-.05h0a.22.22,0,0,1-.11-.05h0a.59.59,0,0,1-.08-.08h0l0,0v0h0a.41.41,0,0,1,0-.11h0a.86.86,0,0,1-.18,0h0a.16.16,0,0,1-.07-.09h0l-.08,0h0s0,0,0-.05h0v0h0a.11.11,0,0,1-.06-.06h0l0-.07h0a.26.26,0,0,1-.07-.15h0s0,0-.07.07h0l-.14,0s0-.08,0-.12h0l-.13,0s0,0-.05-.06h0a.54.54,0,0,1-.12,0h0a.09.09,0,0,1,0-.06h0v0h0a.09.09,0,0,1-.06-.08h0a.14.14,0,0,1-.06.11h0a.25.25,0,0,1-.09,0h-.1a.12.12,0,0,1-.09-.1h0a.22.22,0,0,1,0-.08h0l.12,0h0v0h0v0h0l0-.14h0a.25.25,0,0,0,0-.08h0l0,0h0a.15.15,0,0,1-.12,0h0l0-.07a.19.19,0,0,1,0-.09h0c-.07,0-.15.06-.24.08h0a.16.16,0,0,1-.14,0h0l0,0a.24.24,0,0,1,0-.09h0v0h0l-.09,0h0l-.09-.12h0a.51.51,0,0,1,0-.1h0a.13.13,0,0,1,0-.06h0l0-.05-.07,0h0l-.1.05h0s0,0,0,0h0l0,0h0s0,0,0,0h-.06a.27.27,0,0,1-.06.1h0l-.12,0s0-.05,0-.07h0a.14.14,0,0,1,0-.09h0l-.07.09a.31.31,0,0,1-.12-.05h0a.18.18,0,0,1-.07-.11h0a.3.3,0,0,1,0-.13h0l0-.06v0h0a0,0,0,0,0,0,0h0a.14.14,0,0,1-.11.06h0l-.08-.1h0s0,0,0,0h0a.12.12,0,0,1,0-.08h0s0,0-.06,0h0a.22.22,0,0,1-.16.13h0s0,0,0,.08h0a.24.24,0,0,1-.13.2h0l-.11,0h0v0h0l0,0h0a.05.05,0,0,0,0,0h0l-.09.12h0l-.08,0h0a.27.27,0,0,1-.12.07h0a.12.12,0,0,1-.09,0h0l0-.05h0c-.06,0-.19.09-.3.11h0l-.08-.08-.06,0h-.11l0,0h0l-.13.05h0a.15.15,0,0,1-.17-.07h0l0,0a.15.15,0,0,1,.06-.11h0l.08,0h0a.09.09,0,0,0,0-.06h0s0,0,0,0h0a.19.19,0,0,1-.11,0h0l-.1,0h0a.1.1,0,0,1-.08.05h-.07a.13.13,0,0,1-.11.09H125l0,0h-.1a.16.16,0,0,1,0,.07h0a.18.18,0,0,1-.08.07h0l0,0h0l0,.1h0v0h0s0,0,0,0h0l-.06.09h0l-.08,0h0v0h0a.21.21,0,0,0,0,.07h0a.22.22,0,0,1,.06.13h0s0,0,0,0h0l-.09.08h0a.17.17,0,0,1,0,.08h0s0,0,0,.06h0a.27.27,0,0,1,0,.15h0a.2.2,0,0,1-.14.11h0l-.09-.07h0l-.24.09h0l-.05,0,0,0h0l0,.05v0h0l.07,0h0a.08.08,0,0,1,0,0h0l.12,0a.13.13,0,0,1,0,.06h0a.19.19,0,0,1,0,.15h0l0,.08a.43.43,0,0,1,0,.1h0a.19.19,0,0,1-.12.13h0v0h0s0,.06,0,.09h0s0,0,0,.06h0a.19.19,0,0,1,0,.09h0l0,.07-.09.07h0v.05h0a.15.15,0,0,1,0,.14h0c0,.05,0,0-.06.05h0a.09.09,0,0,1,0,.06h0a.11.11,0,0,1,0,.08h0l-.08,0a.31.31,0,0,0,0,.08h0l.11.06a.68.68,0,0,1-.08.34h0a.37.37,0,0,0-.07.22h0s0,0,0,.05h0v.1l-.1.09h0a.11.11,0,0,0,0,.1h0v0h0l-.06.1-.05,0h0l.06.08a1.14,1.14,0,0,1-.27.62h0l-.08,0-.06.08h0a.08.08,0,0,1,.07.07h0a.15.15,0,0,1,0,.1h0a.07.07,0,0,1,.07,0h0s0,0,0,0h0v.08c0,.07,0,.23-.14.36h0a1.85,1.85,0,0,1,0,.23h0v0l-.07.11h0l0,0h0l0,0h0l0,0h0a0,0,0,0,1,0,0h0a.11.11,0,0,1,0,.05h0l0,0h0v0h0l0,.06h0a.44.44,0,0,0,0,.22h0a.42.42,0,0,0,0,.1h0l0,.07h0v0h0a.23.23,0,0,1,0,.07h0a.13.13,0,0,1,0,.08h0a.07.07,0,0,1-.06,0h0V33h0a.58.58,0,0,1,.07.19h0a.25.25,0,0,1,0,.09h0l.06,0a.16.16,0,0,1,0,.09h0a.19.19,0,0,1,0,.15h0v0h0a.1.1,0,0,1,.07.09h0l0,.06a.05.05,0,0,1,0,0h0v.1l0,0h0l0,0h0v0h0a.2.2,0,0,0,0,.05h0a1.62,1.62,0,0,0,.08.24h0a.06.06,0,0,1,0,0h0a.23.23,0,0,1,0,.07h0a.32.32,0,0,1,0-.09h0s0-.05,0-.08h0l.09-.06a.13.13,0,0,1-.09,0h0a.2.2,0,0,1,0-.08h0c0-.05,0-.1,0-.13h0l.05-.12h0a.19.19,0,0,1-.05-.1h0a.11.11,0,0,1,0-.05h0l.07-.07.17,0h0l.09,0s0,0,0,.07h0a.36.36,0,0,1,0,.21h-.08s0,0,0,.06h0a.14.14,0,0,1,.09,0h0s.07,0,.07.08h0a.25.25,0,0,1,0,.1h0a.18.18,0,0,0,0,.06h0l-.06,0v0l.06,0,0,.12h0l0,.07h0l-.07,0v0l.07,0-.06.12-.09,0h0c.05.07.07.13.1.16h0l0,.06h0l.06,0h.06l0,.05s0,0,0,0h0a.19.19,0,0,1,.11.12h0v0h0a.23.23,0,0,1,.17.18h0a.08.08,0,0,1,0,.06h0v0h0a.1.1,0,0,0,0,0h0a.32.32,0,0,1,0,.07h0a.13.13,0,0,1,0,.09h0a.16.16,0,0,1,.09.12h0l.16.07h0l0-.06h.08l.09.06s0,.06,0,.09h0l0-.06h0l0,0h0a.21.21,0,0,1,.1-.06h.08l.07.08s0,0,0,.05h0s0,0,.06.07h0l.08.07h0v0h0a.29.29,0,0,1,.08-.3h.05c.11,0,.21-.05.34,0h0s0,0,0,0h0a0,0,0,0,1,0,0h0l0,0h0a.06.06,0,0,1,0,.05h0l0,0h0a.16.16,0,0,1,.1-.06h0l.07,0a.35.35,0,0,0,.08.1h0a.59.59,0,0,1,0-.14h0l0,0h0l-.07-.09c0-.08.08-.12.12-.15h0l.09,0h0s0,0,0,0h0l0-.09h.12l0-.07h0a.19.19,0,0,1,.12-.07h0V35h0a.18.18,0,0,1,0-.14h0a.08.08,0,0,1,.06,0h0a.38.38,0,0,1,0-.1h0a.14.14,0,0,1,.09-.08h0l.11,0h0l0,0s0,.05,0,.08h0a.31.31,0,0,1-.05.24h0l.1,0h0l0,.06h.11l0,0h0l0,0h0l0,0h0l-.08,0s0,0,0,0h0a.14.14,0,0,1,0-.11h0l0,.05h-.09l-.09-.06s0-.06,0-.09h0l.06-.09h.1l0,0h0a.08.08,0,0,1,0,0h0a.18.18,0,0,1-.16,0h0a.22.22,0,0,1-.06-.13h0a.13.13,0,0,1,0-.06h0l0-.07h0a.17.17,0,0,1,.18.08h0a.38.38,0,0,1,0,.12h0l-.07,0,.07,0,0,0h0l.09,0v0h0a.14.14,0,0,1,0,.11h0v0h0l0,0h0a.17.17,0,0,1,.1,0h0a.13.13,0,0,1,0,.09h0a.06.06,0,0,1,0,0H128a.14.14,0,0,1,.11.07h0l0,.08h0s0,0,0,.08h0a.08.08,0,0,1,0,.06h0l0,0h0l-.05.08h0s0,0,0,0h0a.1.1,0,0,1,.07,0h0a.09.09,0,0,1,.08,0h0s0,0,0,0h0v.1h0l0,0h0l0,0h0a.18.18,0,0,1,.12.12Zm-1.64-.11h0s0,0,0,0h0a.09.09,0,0,0,0,0h0l-.07.07v0Zm-.13,0Zm-1.46.25h0Zm-.28-.05v0Zm2.6-.53Zm-.36,0h0Zm.49-.17v0l.07,0-.07,0Zm.09.05h0a.14.14,0,0,1,0-.07h0a.23.23,0,0,1-.07.08ZM127,35h0l0,0h0v0Zm2.86-1.65v0Zm-6.38,1.07Zm-.16-.06Zm.28-.17h0Zm0-.07h0v0Zm0-.31.05,0h0l-.05,0Zm.05-.06h0Zm6.19-1.32.07,0-.07,0Zm-6.75.5h0Zm7.15-1.33Zm-7.12,1.2Zm7.36-1.74Zm-7.33.75a.86.86,0,0,0,0-.15h0s0,0,0-.05h0l.08-.09a.11.11,0,0,1,0-.06h0v0h0a.16.16,0,0,1,0,.08h0a1.06,1.06,0,0,0,0,.24Zm7.26-1.5v0Zm.16,0v0h0v0h0v.05h.06Zm.15-.07,0,0h0Zm-7.45,1v0h0l0-.05Zm-.25,0h0Zm.34-.07h0l-.06,0,.06,0Zm-.38.05Zm0,0h0Zm.12,0h0v0Zm-.16-.05Zm0,0Zm0,0h0v0h0v0ZM131.36,29Zm-7.62.46Zm5.7-2.15h0Zm0,0h0Zm-.54-.71h0Zm0,0v0Zm-4.38.63,0,0,0,0Zm3.76-.91Zm-.48-.18v0Zm-1.83.13Zm-1.16,9.31v-.07l.06,0-.06,0v.07l-.09,0s0,0,0,0h0a.25.25,0,0,1,0-.09h0l0,0h0l.08-.09a.29.29,0,0,1,.1,0h0a.15.15,0,0,1,.06.09h0a.17.17,0,0,1,0,.12h0l0,0Zm3-.92a.09.09,0,0,1,0-.06h0a.35.35,0,0,1,0-.15h0v0h0a.13.13,0,0,1,0-.09h0l0-.09h0l.06-.06a.15.15,0,0,1,.13,0h0a.17.17,0,0,0,0-.07h0l.07-.09v0h0l.09-.09.08,0h0a.08.08,0,0,1,.07.07h0a.13.13,0,0,1,0,.09h0l0,0h0s0,0,0,0h0s0,0,0,.08h0s-.05.05-.08.06h0v0h0s0,.07,0,.1h0v0a.18.18,0,0,1-.1.08h0l0,.06h0a.07.07,0,0,1-.08,0Zm.14-.21Zm-.08,0,0,0,0,0Zm0,0Zm1-1.57h-.07v-.07l.08,0-.08,0v.07l-.06-.05a.26.26,0,0,1,0-.11h0a.85.85,0,0,1,0-.38h0l.12,0s.06.08.1.12h0a1.66,1.66,0,0,1,.06.16h0v0h0l0,.06h0a.06.06,0,0,1,0,.06h0a.15.15,0,0,1-.12.15Zm0-.33Zm.32-.94-.09-.06v-.09h0l.06-.09h.09l.09.06s0,.06,0,.09h0l-.06.09Zm.85-.63c0-.1,0-.18,0-.25h0s0,0,0,0h0l.07-.11a.14.14,0,0,1,.1.05h0s0,0,0,0h0l.05.1h0a1.24,1.24,0,0,1,.05.15h0a.22.22,0,0,1,0,.17h0l-.07,0c-.08,0-.16-.07-.16-.14Zm.17.06v0Zm-4.24-4.77Z" transform="translate(-5.99 -1.61)"/><path class="cls-3" d="M125.47,30.24c0,.1,0,.21,0,.34l0,.39-.06.38c0,.12,0,.22-.06.31a.41.41,0,0,1-.12.18.22.22,0,0,1-.16.05c-.13,0-.18-.1-.17-.29s0-.43.07-.64,0-.44.06-.7a1,1,0,0,0-.3.12l-.25.14a.24.24,0,0,1-.12,0,.34.34,0,0,1-.12-.06.2.2,0,0,0-.07-.06l-.07-.1c0-.07,0-.12,0-.16s.08-.09.18-.14l.41-.16a1.64,1.64,0,0,1,.44-.09h.23a.25.25,0,0,1,.13.09.26.26,0,0,1,0,.14Zm1.43,1.46a.32.32,0,0,1,0,.17.16.16,0,0,1-.11.05.13.13,0,0,1-.12,0s0-.08-.06-.18l-.06-.38h-.69a.25.25,0,0,1-.16-.06.44.44,0,0,1-.09-.11c0-.1-.06-.16,0-.19a.64.64,0,0,1,.19,0l.3,0,.4-.06a.62.62,0,0,1,0-.13s0-.08,0-.12h-.6a.25.25,0,0,1-.16-.06.47.47,0,0,1-.09-.12c0-.09-.06-.16,0-.19a.64.64,0,0,1,.19-.05l.26,0,.35-.05a1.1,1.1,0,0,1,0-.18l0-.17a.08.08,0,0,0,0-.05l-.06-.05V29.4l.32-.06a.3.3,0,0,1,.2.05.47.47,0,0,1,.15.36c0,.32,0,.63,0,.94S126.91,31.33,126.9,31.7Zm.38-1.48a.57.57,0,0,1,.09-.16.15.15,0,0,1,.13-.06l.11,0a.16.16,0,0,1,.08,0s0,.07,0,.13-.09.37-.12.54-.08.36-.12.57l0,.11c0,.05,0,.08,0,.09a.16.16,0,0,1-.11,0,.15.15,0,0,1-.1,0,.19.19,0,0,1,0-.1.69.69,0,0,1,0-.13,1,1,0,0,1,0-.24c0-.1,0-.21,0-.31l.06-.3Z" transform="translate(-5.99 -1.61)"/><path class="cls-3" d="M127.7,29.29l-.16-.17-.21-.23-.24-.25-.22-.26-.15.11-.17.11a.14.14,0,0,1-.16,0,.23.23,0,0,1-.12-.12.19.19,0,0,1,0-.12.25.25,0,0,1,.09-.14l.26-.24.27-.24.28-.25.29-.28a.59.59,0,0,1,.21-.14.27.27,0,0,1,.21,0l.06.06.06.06c0,.06.06.11,0,.16l-.11.12-.33.31-.33.28.44.54c.15.17.29.35.44.54a.61.61,0,0,1,.05.12.11.11,0,0,1,0,.13.08.08,0,0,1,0,0H128C127.94,29.49,127.84,29.43,127.7,29.29Zm1.66-.29a.28.28,0,0,1,0,.18.14.14,0,0,1-.1.07c-.07,0-.12,0-.14-.06a.28.28,0,0,1-.05-.12c-.08-.39-.14-.76-.19-1.14s-.11-.75-.16-1.14a.86.86,0,0,0,0-.13.15.15,0,0,0-.08-.1l-.08-.07-.08-.06a.18.18,0,0,1,0-.29s0,0,0,0l0,0a.22.22,0,0,1,.09-.1.11.11,0,0,1,.08,0l.23.07.2.12a1,1,0,0,1,.14.15.56.56,0,0,1,.09.17,1.21,1.21,0,0,1,.05.18c0,.07,0,.12,0,.18s0,.27,0,.42,0,.29,0,.44l.24,0h.25a.23.23,0,0,1,.15,0,.11.11,0,0,1,.06.07.09.09,0,0,1,0,.09.32.32,0,0,1-.15.09l-.23.07-.28.07c0,.17,0,.33,0,.49Z" transform="translate(-5.99 -1.61)"/><path class="cls-3" d="M126.36,34a.21.21,0,0,1-.11.08.13.13,0,0,1-.13,0,.12.12,0,0,1-.07-.13.64.64,0,0,1,.06-.16,4.74,4.74,0,0,0,.26-.5c.07-.17.14-.33.19-.49a.11.11,0,0,0,0-.1s-.06,0-.12,0l-.28.09-.26.09c-.09,0-.15,0-.19,0a.75.75,0,0,1-.07-.12.14.14,0,0,1,0-.13l.1-.06.18-.07.23-.07.24-.06.23,0a.4.4,0,0,1,.25,0,.25.25,0,0,1,.15.11.38.38,0,0,1,0,.19.66.66,0,0,1,0,.23l-.11.25c0,.1-.09.19-.14.29l.22.12a1.07,1.07,0,0,1,.21.13.5.5,0,0,1,.18.19.19.19,0,0,1,0,.15.19.19,0,0,1-.13.07.36.36,0,0,1-.22-.06l-.21-.1-.25-.11-.1.16Zm1.47,1.83.07-.11.06-.11.07-.11a.8.8,0,0,1,.09-.14l-.19.06-.18.07a.26.26,0,0,1-.15,0,.11.11,0,0,1-.13-.13.24.24,0,0,1,.06-.15l.2-.27a2,2,0,0,0,.2-.29,1,1,0,0,0-.44.2,1.93,1.93,0,0,0-.35.35s-.09,0-.16,0a.33.33,0,0,1-.1-.14v-.1a.26.26,0,0,1,.07-.11,1.83,1.83,0,0,1,.5-.4,1.32,1.32,0,0,1,.62-.16.38.38,0,0,1,.32.09c.05.08,0,.18-.06.32a1.73,1.73,0,0,1-.15.2,1,1,0,0,1-.13.16l.13,0a.23.23,0,0,1,.11,0,.22.22,0,0,1,.2.09c0,.08,0,.18-.05.32l-.1.18a2.12,2.12,0,0,1-.11.21l.31-.09a.62.62,0,0,1,.33,0l0,0s0,0,0,0v0a.07.07,0,0,1,0,0s0,0-.06,0a1.5,1.5,0,0,0-.44.12l-.42.2-.12,0a.14.14,0,0,1-.12-.07.11.11,0,0,1,0-.1.37.37,0,0,1,0-.11s0-.08,0-.11Zm.35-2.4s0-.1,0-.16,0-.12,0-.18h-.66a.2.2,0,0,1-.14-.06.44.44,0,0,1-.09-.11c0-.09-.06-.15,0-.18a.56.56,0,0,1,.18-.05l.15,0,.19,0,.22,0,.22,0c0-.12,0-.22.05-.32s0-.19,0-.25a.51.51,0,0,1,.08-.18.19.19,0,0,1,.18-.08h.17a.2.2,0,0,1,.08,0,.09.09,0,0,1,0,.06v.07s0,0,0,.06a8.39,8.39,0,0,0-.18.84c-.05.28-.11.57-.18.88l-.06.13a.15.15,0,0,1-.13.06.17.17,0,0,1-.12-.05A.59.59,0,0,1,128.18,33.39Z" transform="translate(-5.99 -1.61)"/><path class="cls-4" d="M43.9,21.06a3.81,3.81,0,0,0-1.34-2.18,4.4,4.4,0,0,0-2.28-.72,12.27,12.27,0,0,1-1.84,1.62,21.62,21.62,0,0,1-2.14,1.35V17.52a13.07,13.07,0,0,0,1.35-1,6.78,6.78,0,0,0,1.4-1.82,12.61,12.61,0,0,0,1.1-3,21.19,21.19,0,0,0,.44-4.72V3.21h3.07V6.9a25.42,25.42,0,0,1-.43,5A15.6,15.6,0,0,1,42,15.63a7.08,7.08,0,0,1,1.81.53,4.75,4.75,0,0,1,1.44,1,5.58,5.58,0,0,1,1.09,1.59,11.1,11.1,0,0,1,.75,2.32Zm10.9-8H51.66v8.43H48.59V2.74h3.07v7.37H54.8Z" transform="translate(-5.99 -1.61)"/><path class="cls-4" d="M64.84,6.83h1.71V2.74h3V21.53h-3V17.08h-3.4V15.65A9.55,9.55,0,0,1,60.4,18.9a16.32,16.32,0,0,1-4.14,2.2V17.88a12.13,12.13,0,0,0,2.29-1.42A7.24,7.24,0,0,0,60.3,14.4a10.93,10.93,0,0,0,1.12-3.06,21.45,21.45,0,0,0,.4-4.44V6.2H56.53v-3h8.31Zm-.13,3a17.79,17.79,0,0,1-.87,4.26h2.71V9.83Zm8.73-7.09V21.53h-3V2.74Z" transform="translate(-5.99 -1.61)"/><path class="cls-4" d="M86.18,6.2a6,6,0,0,1-.78,3.11A3.12,3.12,0,0,1,87,10.61a6.94,6.94,0,0,1,.83,2.73h-3A3.26,3.26,0,0,0,84.27,12a1.56,1.56,0,0,0-.94-.54,11,11,0,0,1-3.12,1.3,24.57,24.57,0,0,1-3.94.64V10.41a19,19,0,0,0,2.56-.34A8.59,8.59,0,0,0,81,9.36a4.19,4.19,0,0,0,1.52-1.21,2.84,2.84,0,0,0,.58-1.83V6.2H76.53v-3h9.65Zm-9,7.77H93.45v5H80.24v.47H93.45v2.29H77.18V16.71h13.2v-.45H77.18ZM93.45,2.74V13.43H90.38V9.59H87.05v-3h3.33V2.74Z" transform="translate(-5.99 -1.61)"/><path class="cls-4" d="M106.18,3.21V21.06H96.54V3.21ZM99.6,6.15v12h3.51v-12Zm15.21,7h-3.14v8.43H108.6V2.74h3.07v7.37h3.14Z" transform="translate(-5.99 -1.61)"/><path class="cls-4" d="M124.85,6.18c0,.14,0,.27,0,.39l0,.38h1.75V2.74h3V14.13h-3V9.94H124a6.33,6.33,0,0,1-2.81,2.59,19.58,19.58,0,0,1-4.93,1.53V11.18a19.26,19.26,0,0,0,2.36-.6,5.6,5.6,0,0,0,1.75-.94l-3.84.16V7.07h5.29l0-.37c0-.11,0-.24,0-.38V6.13h-5.33V3.21h8.31ZM117.18,19c.68-.06,1.44-.15,2.26-.27a11.19,11.19,0,0,0,2.28-.57,5.15,5.15,0,0,0,1.75-1.09,2.37,2.37,0,0,0,.71-1.79v-.42h3.07v.44a4.87,4.87,0,0,1-.08.95c0,.3-.11.59-.18.85a15.83,15.83,0,0,1,2.28.54,9.29,9.29,0,0,1,2,.91,7.21,7.21,0,0,1,1.6,1.36A6.8,6.8,0,0,1,134,21.76H130.5a5.51,5.51,0,0,0-2.25-1.58,11.65,11.65,0,0,0-2.89-.71,9,9,0,0,1-3.53,1.73,26.59,26.59,0,0,1-4.65.75ZM133.45,2.74V15.07H130.5V2.74Z" transform="translate(-5.99 -1.61)"/><path class="cls-5" d="M51.32,28.32H50.08v3.06a.26.26,0,0,1-.1.2.38.38,0,0,1-.21.07.37.37,0,0,1-.2-.07.23.23,0,0,1-.1-.2V28.32h-.9v-.55h.9v-.4a1.12,1.12,0,0,1,.45-.94,2,2,0,0,1,1.32-.29v.54a1.49,1.49,0,0,0-.94.18.68.68,0,0,0-.22.57v.34h1.24Z" transform="translate(-5.99 -1.61)"/><path class="cls-5" d="M55.41,29.64a2.1,2.1,0,0,1-.51,1.45,1.68,1.68,0,0,1-1.31.57,1.63,1.63,0,0,1-1.29-.57,2.37,2.37,0,0,1,0-2.91,1.61,1.61,0,0,1,1.29-.58,1.67,1.67,0,0,1,1.3.58A2.11,2.11,0,0,1,55.41,29.64Zm-.61,0a1.59,1.59,0,0,0-.35-1.05,1.07,1.07,0,0,0-1.71,0,1.64,1.64,0,0,0-.35,1.05,1.59,1.59,0,0,0,.35,1,1.07,1.07,0,0,0,1.71,0A1.54,1.54,0,0,0,54.8,29.64Z" transform="translate(-5.99 -1.61)"/><path class="cls-5" d="M59.46,30.13A1.47,1.47,0,0,1,59,31.25a1.57,1.57,0,0,1-1.12.42,1.53,1.53,0,0,1-1.12-.44A1.64,1.64,0,0,1,56.33,30V27.75H57v2.12a1.44,1.44,0,0,0,.26.92.85.85,0,0,0,.69.32.88.88,0,0,0,.68-.3,1.21,1.21,0,0,0,.28-.84V27.75h.6Z" transform="translate(-5.99 -1.61)"/><path class="cls-5" d="M62.76,27.66v.58a1.33,1.33,0,0,0-1.12.28,1.45,1.45,0,0,0-.44,1.14v1.71a.23.23,0,0,1-.09.19.33.33,0,0,1-.21.07.31.31,0,0,1-.2-.07.22.22,0,0,1-.1-.19V27.76h.6v.51A1.6,1.6,0,0,1,62.76,27.66Z" transform="translate(-5.99 -1.61)"/><path class="cls-5" d="M68.84,30.55a1,1,0,0,1-.42.83,1.7,1.7,0,0,1-1.1.33,2,2,0,0,1-1.44-.6.33.33,0,0,1-.12-.26.4.4,0,0,1,.09-.21.29.29,0,0,1,.22-.09.33.33,0,0,1,.24.13,1.94,1.94,0,0,0,.49.34,1.17,1.17,0,0,0,.52.13c.48,0,.77-.13.89-.4a.43.43,0,0,0,0-.35.48.48,0,0,0-.26-.28,5.8,5.8,0,0,0-.77-.27l-.63-.2a1.14,1.14,0,0,1-.57-.41,1,1,0,0,1-.16-.73,1,1,0,0,1,.46-.7,1.62,1.62,0,0,1,1-.25,2.47,2.47,0,0,1,1.48.57l-.35.47a1.92,1.92,0,0,0-1.09-.47c-.49,0-.78.12-.86.4a.41.41,0,0,0,0,.31.4.4,0,0,0,.22.22c.17.08.43.17.78.29l.65.22A1,1,0,0,1,68.84,30.55Z" transform="translate(-5.99 -1.61)"/><path class="cls-5" d="M73.17,29.73c0,.19-.08.28-.22.28H70.3a1.34,1.34,0,0,0,.41.8,1,1,0,0,0,.74.3,1.86,1.86,0,0,0,1.1-.33.19.19,0,0,1,.25,0,.29.29,0,0,1,.13.22.3.3,0,0,1-.1.25,2.22,2.22,0,0,1-1.38.42,1.67,1.67,0,0,1-1.3-.56,2,2,0,0,1-.52-1.43,2.24,2.24,0,0,1,.5-1.47,1.63,1.63,0,0,1,1.3-.59,1.54,1.54,0,0,1,1.27.6A2.42,2.42,0,0,1,73.17,29.73Zm-.65-.27a1.39,1.39,0,0,0-.3-.92,1,1,0,0,0-.8-.37,1,1,0,0,0-.8.36,1.63,1.63,0,0,0-.37.93Z" transform="translate(-5.99 -1.61)"/><path class="cls-5" d="M77.53,31.45a.19.19,0,0,1-.15.19.39.39,0,0,1-.3,0,.19.19,0,0,1-.15-.19v-.3a1.62,1.62,0,0,1-1.19.51,1.67,1.67,0,0,1-1.29-.55,2.34,2.34,0,0,1,0-2.92,1.64,1.64,0,0,1,1.28-.57,1.55,1.55,0,0,1,1.2.52v-.38h.6Zm-.6-1.8v-.07a1.53,1.53,0,0,0-.33-1,1.08,1.08,0,0,0-.86-.39,1,1,0,0,0-.86.41,1.85,1.85,0,0,0,0,2.11,1.1,1.1,0,0,0,1.72,0A1.6,1.6,0,0,0,76.93,29.65Z" transform="translate(-5.99 -1.61)"/><path class="cls-5" d="M81.54,30.55a1,1,0,0,1-.41.83,1.72,1.72,0,0,1-1.1.33,2.05,2.05,0,0,1-1.45-.6.35.35,0,0,1-.11-.26.4.4,0,0,1,.09-.21.26.26,0,0,1,.21-.09.33.33,0,0,1,.25.13,1.72,1.72,0,0,0,.48.34,1.25,1.25,0,0,0,.53.13c.47,0,.77-.13.89-.4a.47.47,0,0,0,0-.35.51.51,0,0,0-.26-.28,6.38,6.38,0,0,0-.77-.27l-.63-.2a1.21,1.21,0,0,1-.58-.41,1,1,0,0,1,.3-1.43,1.64,1.64,0,0,1,1-.25,2.5,2.5,0,0,1,1.49.57l-.36.47A1.89,1.89,0,0,0,80,28.13c-.49,0-.77.12-.86.4a.47.47,0,0,0,0,.31.43.43,0,0,0,.22.22c.17.08.43.17.78.29s.57.18.65.22A1,1,0,0,1,81.54,30.55Z" transform="translate(-5.99 -1.61)"/><path class="cls-5" d="M86,29.64a2.1,2.1,0,0,1-.51,1.45,1.77,1.77,0,0,1-2.6,0,2.37,2.37,0,0,1,0-2.91,1.63,1.63,0,0,1,1.3-.58,1.7,1.7,0,0,1,1.3.58A2.15,2.15,0,0,1,86,29.64Zm-.61,0A1.59,1.59,0,0,0,85,28.59a1.05,1.05,0,0,0-.85-.43,1,1,0,0,0-.85.43,1.59,1.59,0,0,0-.36,1.05,1.55,1.55,0,0,0,.36,1,1.07,1.07,0,0,0,.85.43,1.08,1.08,0,0,0,.85-.43A1.54,1.54,0,0,0,85.34,29.64Z" transform="translate(-5.99 -1.61)"/><path class="cls-5" d="M90.09,31.37a.23.23,0,0,1-.16.23.32.32,0,0,1-.3,0,.23.23,0,0,1-.15-.23v-2c0-.82-.31-1.23-.92-1.23a1,1,0,0,0-.75.37,1.32,1.32,0,0,0-.32.9v1.92a.23.23,0,0,1-.15.23.34.34,0,0,1-.31,0,.23.23,0,0,1-.15-.23V27.76h.61v.4a1.45,1.45,0,0,1,2.17-.1,1.65,1.65,0,0,1,.43,1.19Z" transform="translate(-5.99 -1.61)"/><path class="cls-5" d="M94.1,30.55a1,1,0,0,1-.41.83,1.72,1.72,0,0,1-1.1.33,2,2,0,0,1-1.45-.6.31.31,0,0,1-.11-.26.4.4,0,0,1,.09-.21.26.26,0,0,1,.21-.09.34.34,0,0,1,.25.13,1.72,1.72,0,0,0,.48.34,1.21,1.21,0,0,0,.53.13c.47,0,.77-.13.88-.4a.43.43,0,0,0,0-.35.55.55,0,0,0-.26-.28,6.38,6.38,0,0,0-.77-.27l-.63-.2a1.21,1.21,0,0,1-.58-.41,1,1,0,0,1,.3-1.43,1.64,1.64,0,0,1,1-.25,2.45,2.45,0,0,1,1.48.57l-.35.47a1.89,1.89,0,0,0-1.09-.47c-.49,0-.78.12-.86.4a.47.47,0,0,0,0,.31.4.4,0,0,0,.22.22c.17.08.43.17.78.29s.57.18.65.22A1,1,0,0,1,94.1,30.55Z" transform="translate(-5.99 -1.61)"/><path class="cls-5" d="M102.2,31.37a.23.23,0,0,1-.14.23.32.32,0,0,1-.3,0,.23.23,0,0,1-.15-.23V29.12a1,1,0,0,0-.21-.68.66.66,0,0,0-.54-.25.74.74,0,0,0-.55.26.93.93,0,0,0-.24.67v2.25a.23.23,0,0,1-.15.23.32.32,0,0,1-.3,0,.23.23,0,0,1-.14-.23V29.12a1,1,0,0,0-.21-.67.63.63,0,0,0-.5-.26.76.76,0,0,0-.55.27.89.89,0,0,0-.27.64v2.27a.23.23,0,0,1-.15.23.34.34,0,0,1-.31,0,.23.23,0,0,1-.15-.23V27.76H98v.32a1.15,1.15,0,0,1,.45-.35,1,1,0,0,1,1.38.52,1.32,1.32,0,0,1,1.08-.62,1.37,1.37,0,0,1,1,.35,1.25,1.25,0,0,1,.38,1Z" transform="translate(-5.99 -1.61)"/><path class="cls-5" d="M106.71,31.45a.19.19,0,0,1-.15.19.39.39,0,0,1-.3,0,.19.19,0,0,1-.15-.19v-.3a1.62,1.62,0,0,1-1.19.51,1.67,1.67,0,0,1-1.29-.55,2.34,2.34,0,0,1,0-2.92,1.64,1.64,0,0,1,1.28-.57,1.55,1.55,0,0,1,1.2.52v-.38h.6Zm-.6-1.8v-.07a1.53,1.53,0,0,0-.33-1,1.08,1.08,0,0,0-.86-.39,1,1,0,0,0-.86.41,1.85,1.85,0,0,0,0,2.11,1.1,1.1,0,0,0,1.72,0A1.6,1.6,0,0,0,106.11,29.65Z" transform="translate(-5.99 -1.61)"/><path class="cls-5" d="M110,27.66v.58a1.33,1.33,0,0,0-1.12.28,1.45,1.45,0,0,0-.43,1.14v1.71a.22.22,0,0,1-.1.19.31.31,0,0,1-.2.07.31.31,0,0,1-.21-.07.24.24,0,0,1-.1-.19V27.76h.61v.51A1.58,1.58,0,0,1,110,27.66Z" transform="translate(-5.99 -1.61)"/><path class="cls-5" d="M114.16,31.2a.3.3,0,0,1-.13.49.32.32,0,0,1-.28-.1l-1.67-2-.6.55v1.25a.24.24,0,0,1-.15.23.32.32,0,0,1-.3,0,.24.24,0,0,1-.15-.23v-5.1h.6v3.06l1.74-1.62h.88l-1.57,1.45Z" transform="translate(-5.99 -1.61)"/><path class="cls-5" d="M118.23,29.73c0,.19-.07.28-.22.28h-2.65a1.4,1.4,0,0,0,.41.8,1.08,1.08,0,0,0,.74.3,1.82,1.82,0,0,0,1.1-.33.2.2,0,0,1,.26,0A.29.29,0,0,1,118,31a.33.33,0,0,1-.1.25,2.24,2.24,0,0,1-1.38.42,1.65,1.65,0,0,1-1.3-.56,2,2,0,0,1-.52-1.43,2.19,2.19,0,0,1,.5-1.47,1.62,1.62,0,0,1,1.3-.59,1.51,1.51,0,0,1,1.26.6A2.36,2.36,0,0,1,118.23,29.73Zm-.64-.27a1.35,1.35,0,0,0-.31-.92,1,1,0,0,0-.8-.37,1,1,0,0,0-.79.36,1.56,1.56,0,0,0-.37.93Z" transform="translate(-5.99 -1.61)"/><path class="cls-5" d="M121.34,28.32h-1.19v2.36c0,.39.3.51.89.37a.22.22,0,0,1,.25.07.28.28,0,0,1,0,.28.37.37,0,0,1-.26.22,1.42,1.42,0,0,1-1-.05.82.82,0,0,1-.46-.81V28.32h-.85v-.56h.85V26.28h.59v1.48h1.19Z" transform="translate(-5.99 -1.61)"/><path class="cls-6" d="M27.41,10.86c1.49-1.42,3-2.78,3.52-4.84a13,13,0,0,1-7.68,4.9c.58-1.65,1-3.2,1.66-4.66.87-1.94,2.63-2.91,4.54-3.6,1-.37,2-.67,3.2-1,0,.87.14,1.7.09,2.52a10.59,10.59,0,0,1-2.81,6.48,1.25,1.25,0,0,1-.82.32C28.57,11,28,10.89,27.41,10.86Z" transform="translate(-5.99 -1.61)"/><path class="cls-6" d="M24.28,14.1a8.69,8.69,0,0,1,5.28-.24c-.56-.8-2.31-1.14-5.61-1.13.85-.85,3.47-1.23,5.2-.65a7.83,7.83,0,0,1,5.22,5.82c-2.15-.47-4.32.24-6.36-.74A12.08,12.08,0,0,1,24.28,14.1Z" transform="translate(-5.99 -1.61)"/><path class="cls-6" d="M21.33,11.6a5.83,5.83,0,0,0,0-3.53c.55.36.82,1.52.89,3.71a4.14,4.14,0,0,0,.31-3.47,5.23,5.23,0,0,0-4-3.35c.36,1.43-.06,2.89.64,4.22A7.9,7.9,0,0,0,21.33,11.6Z" transform="translate(-5.99 -1.61)"/><path class="cls-7" d="M26.18,19.39a.58.58,0,0,0-.52-.63h-1a2.19,2.19,0,0,0-.36,0h-.57v0l-1.18-3.86a1.74,1.74,0,0,0-1.7-.91H20a.67.67,0,0,0-.58-.37H12.88a.66.66,0,0,0-.58.37H11.25a1.69,1.69,0,0,0-1.68.92l-1,3.86H8a2.19,2.19,0,0,0-.36,0H6.51a.58.58,0,0,0-.52.63.59.59,0,0,0,.49.62l1,8.21A1.5,1.5,0,0,0,9,29.4H23.25a1.5,1.5,0,0,0,1.55-1.18l1-8.23h0A.6.6,0,0,0,26.18,19.39ZM15.89,20v2.18h-4V20Zm-4.66,0v2.18H7.51L7.25,20ZM7.59,22.79h3.64v2.92H7.94Zm4.28,0h4v2.92h-4Zm4,3.53V28.7h-4V26.32Zm.65,0h3.8V28.7h-3.8Zm0-.61V22.79h3.8v2.92Zm0-3.52V20h3.8v2.18ZM10.2,15a1.15,1.15,0,0,1,1.05-.45h1.07a.64.64,0,0,0,.56.35H19.4a.64.64,0,0,0,.56-.35h.88c.53,0,1,.24,1.07.46l1.14,3.72H9.22Zm-2,13.14L8,26.32h3.22V28.7H9A.79.79,0,0,1,8.23,28.14Zm15,.56H21V26.32h3.28l-.22,1.82A.79.79,0,0,1,23.25,28.7Zm1.09-3H21V22.79h3.7Zm.42-3.48v0H21V20h4Z" transform="translate(-5.99 -1.61)"/></svg>